<svg width="24" height="24" viewBox="0 0 24 24" fill="none" xmlns="http://www.w3.org/2000/svg">
<path d="M22.5 12C22.5 13.3789 22.2284 14.7442 21.7007 16.0182C21.173 17.2921 20.3996 18.4496 19.4246 19.4246C18.4496 20.3996 17.2921 21.173 16.0182 21.7007C14.7442 22.2284 13.3789 22.5 12 22.5C10.6211 22.5 9.25573 22.2284 7.98182 21.7007C6.7079 21.173 5.55039 20.3996 4.57537 19.4246C3.60036 18.4496 2.82694 17.2921 2.29926 16.0182C1.77159 14.7442 1.5 13.3789 1.5 12C1.5 10.6211 1.77159 9.25573 2.29927 7.98181C2.82694 6.7079 3.60036 5.55039 4.57538 4.57537C5.55039 3.60036 6.7079 2.82694 7.98182 2.29926C9.25574 1.77159 10.6211 1.5 12 1.5C13.3789 1.5 14.7442 1.77159 16.0182 2.29927C17.2921 2.82694 18.4496 3.60036 19.4246 4.57538C20.3996 5.55039 21.173 6.70791 21.7007 7.98182C22.2284 9.25574 22.5 10.6211 22.5 12L22.5 12Z" stroke="#E6E7EB" stroke-width="3" stroke-linecap="round" stroke-linejoin="round"/>
<path d="M12 1.5C13.3789 1.5 14.7442 1.77159 16.0182 2.29926C17.2921 2.82694 18.4496 3.60036 19.4246 4.57538C20.3996 5.55039 21.173 6.7079 21.7007 7.98182C22.2284 9.25574 22.5 10.6211 22.5 12" stroke="#9AA1B0" stroke-width="3" stroke-linecap="round" stroke-linejoin="round"/>
</svg>
