<svg width="24" height="24" viewBox="0 0 24 24" fill="none" xmlns="http://www.w3.org/2000/svg">
<path d="M22.4995 12C22.4995 13.3789 22.2279 14.7442 21.7002 16.0182C21.1726 17.2921 20.3991 18.4496 19.4241 19.4246C18.4491 20.3996 17.2916 21.173 16.0177 21.7007C14.7438 22.2284 13.3784 22.5 11.9995 22.5C10.6206 22.5 9.25524 22.2284 7.98133 21.7007C6.70741 21.173 5.5499 20.3996 4.57489 19.4246C3.59987 18.4496 2.82645 17.2921 2.29877 16.0182C1.7711 14.7442 1.49951 13.3789 1.49951 12C1.49951 10.6211 1.7711 9.25573 2.29878 7.98181C2.82645 6.7079 3.59988 5.55039 4.57489 4.57537C5.54991 3.60036 6.70742 2.82694 7.98133 2.29926C9.25525 1.77159 10.6206 1.5 11.9995 1.5C13.3784 1.5 14.7438 1.77159 16.0177 2.29927C17.2916 2.82694 18.4491 3.60036 19.4241 4.57538C20.3991 5.55039 21.1726 6.70791 21.7002 7.98182C22.2279 9.25574 22.4995 10.6211 22.4995 12L22.4995 12Z" stroke="#E6E7EB" stroke-width="3" stroke-linecap="round" stroke-linejoin="round"/>
<path d="M4.57489 4.57537C5.74657 3.40369 7.17892 2.52595 8.75483 2.01391C10.3307 1.50186 12.0055 1.37006 13.6421 1.62927C15.2787 1.88849 16.8307 2.53136 18.1712 3.50532C19.5118 4.47929 20.6028 5.75669 21.3551 7.2331C22.1073 8.7095 22.4995 10.343 22.4995 12C22.4995 13.657 22.1073 15.2905 21.3551 16.7669C20.6028 18.2433 19.5118 19.5207 18.1712 20.4947C16.8307 21.4686 15.2787 22.1115 13.6421 22.3707" stroke="#9AA1B0" stroke-width="3" stroke-linecap="round" stroke-linejoin="round"/>
</svg>
